 <svg  version="1.0" xmlns="http://www.w3.org/2000/svg"  width="300.000000pt" height="172.000000pt" viewBox="0 0 300.000000 172.000000"  preserveAspectRatio="xMidYMid meet">  <g transform="translate(0.000000,172.000000) scale(0.100000,-0.100000)" fill="#ffffff" stroke="none"> <path d="M125 1694 c-74 -38 -124 -115 -125 -190 0 -88 12 -101 712 -800 420 -418 676 -667 700 -677 46 -22 130 -22 176 0 24 10 280 259 700 677 700 699 712 712 712 800 -1 77 -65 169 -137 197 -38 14 -121 11 -161 -8 -24 -10 -252 -230 -619 -597 l-583 -581 -582 581 c-368 367 -596 587 -620 597 -45 21 -134 22 -173 1z"/> </g> </svg> 